#!OML:ASF F:\VICON\USERDATA\INSTALL\rory3\rory3.ASF
:FULLY-SPECIFIED
:DEGREES
494
root -17.141 18.3083 12.0025 -351.033 83.8114 11.1915
lowerback 6.96829 2.85239 0.998648
upperback 0.84804 3.87754 -0.437304
thorax -2.92735 1.92399 -1.3705
lowerneck -6.96301 -2.55606 -13.0906
upperneck 44.6652 1.34066 3.48017
head 17.8462 -0.214202 4.55134
rclavicle -6.66426e-014 5.06901e-015
rhumerus -29.6111 -13.704 -80.8016
rradius 34.1885
rwrist 5.48808
rhand -15.9737 8.38745
rfingers 7.12502
rthumb 10.2255 -21.344
lclavicle -6.66426e-014 5.06901e-015
lhumerus -43.917 21.0119 70.1655
lradius 21.769
lwrist -13.5137
lhand -19.5229 26.1415
lfingers 7.12502
lthumb 6.80036 56.0123
rfemur 6.8429 -1.49212 19.1657
rtibia 37.159
rfoot 3.85434 3.57854
rtoes 2.78589
lfemur -11.574 -4.51448 -24.2922
ltibia 24.7601
lfoot 4.6184 -13.6161
ltoes -1.07287
495
root -17.2718 18.2917 12.0017 -351.026 83.6381 11.1944
lowerback 7.09488 3.025 1.16371
upperback 0.8394 4.11684 -0.594204
thorax -2.97679 2.04017 -1.653
lowerneck -6.95542 -2.71401 -12.9517
upperneck 44.7016 1.0014 3.63116
head 17.9009 -0.311707 4.55033
rclavicle -4.82954e-014 9.93923e-016
rhumerus -29.1803 -13.8419 -81.0058
rradius 34.3137
rwrist 5.75294
rhand -15.6759 8.78656
rfingers 7.12502
rthumb 10.5128 -20.9305
lclavicle -4.82954e-014 9.93923e-016
lhumerus -43.7486 20.7543 70.1825
lradius 21.743
lwrist -13.5401
lhand -18.6949 26.2161
lfingers 7.12502
lthumb 7.59967 56.0596
rfemur 7.55091 -0.81934 19.4123
rtibia 35.2474
rfoot 3.45964 3.68869
rtoes 1.73261
lfemur -12.07 -4.71681 -24.2127
ltibia 24.8122
lfoot 4.79209 -13.2913
ltoes -0.563195
496
root -17.4088 18.2784 12.0029 -349.992 83.2325 12.0258
lowerback 7.03803 3.20676 1.08385
upperback 0.816108 4.34881 -0.696085
thorax -2.95909 2.15612 -1.73151
lowerneck -6.98446 -2.75946 -12.9206
upperneck 44.624 0.883178 3.69125
head 17.8718 -0.347124 4.55013
rclavicle 2.98798e-014 -1.78906e-015
rhumerus -28.6454 -13.5232 -81.1835
rradius 34.5762
rwrist 5.87058
rhand -15.5295 8.59526
rfingers 7.12502
rthumb 10.654 -21.1146
lclavicle 2.98798e-014 -1.78906e-015
lhumerus -43.6797 20.733 70.3308
lradius 21.9475
lwrist -13.4928
lhand -18.4179 26.5604
lfingers 7.12502
lthumb 7.86701 56.3941
rfemur 7.88511 -0.161579 19.4224
rtibia 33.4952
rfoot 3.04912 3.98478
rtoes -0.936857
lfemur -12.7787 -4.76696 -24.2407
ltibia 24.8052
lfoot 4.98623 -13.0023
ltoes -0.226912
497
root -17.5467 18.2697 12.0011 -349.636 82.4964 12.0784
lowerback 6.91722 3.38126 0.969823
upperback 0.762162 4.57012 -0.704678
thorax -2.94786 2.26687 -1.69093
lowerneck -7.07696 -2.70726 -13.017
upperneck 44.5631 1.04174 3.55713
head 17.8458 -0.317831 4.52392
rclavicle 7.56189e-014 -6.36111e-015
rhumerus -28.0711 -12.6788 -81.3755
rradius 34.9275
rwrist 5.63902
rhand -15.9582 8.33041
rfingers 7.12502
rthumb 10.2405 -21.4003
lclavicle 7.56189e-014 -6.36111e-015
lhumerus -43.929 20.893 70.5727
lradius 22.4891
lwrist -13.3548
lhand -18.6196 26.4341
lfingers 7.12502
lthumb 7.67235 56.275
rfemur 7.94971 0.628149 19.3381
rtibia 32.0256
rfoot 2.56456 4.27403
rtoes -0.797472
lfemur -13.4944 -4.60123 -24.229
ltibia 24.6713
lfoot 5.18242 -12.567
ltoes 0.0357522
498
root -17.6897 18.252 11.9967 -349.411 82.0199 12.1342
lowerback 6.98189 3.33042 0.865058
upperback 0.744581 4.49775 -0.58732
thorax -3.02205 2.23122 -1.51118
lowerneck -7.34757 -2.52683 -13.349
upperneck 44.5869 1.48037 3.45862
head 17.889 -0.215961 4.60862
rclavicle 1.56605e-014 9.93923e-016
rhumerus -27.3441 -11.4451 -81.6504
rradius 35.0676
rwrist 5.40964
rhand -16.4108 8.21884
rfingers 7.12502
rthumb 9.80386 -21.5329
lclavicle 1.56605e-014 9.93923e-016
lhumerus -44.2457 21.3472 70.8527
lradius 22.9439
lwrist -12.9427
lhand -18.9725 26.0093
lfingers 7.12502
lthumb 7.33167 55.8623
rfemur 8.1124 1.04733 19.3202
rtibia 30.8599
rfoot 1.45629 4.56722
rtoes 0.887999
lfemur -14.0468 -4.5429 -24.1699
ltibia 24.449
lfoot 5.58453 -12.174
ltoes 1.53915
499
root -17.8347 18.2326 11.9944 -347.609 81.7883 13.7948
lowerback 7.04803 3.34695 0.692338
upperback 0.74212 4.50387 -0.69235
thorax -3.06609 2.23556 -1.52845
lowerneck -7.48278 -2.48395 -13.4015
upperneck 44.5423 1.53318 3.52538
head 17.8874 -0.199218 4.65644
rclavicle -3.52284e-014 3.97569e-016
rhumerus -26.738 -10.9176 -82.0032
rradius 35.2944
rwrist 5.30617
rhand -16.4095 8.24417
rfingers 7.12502
rthumb 9.80506 -21.5076
lclavicle -3.52284e-014 3.97569e-016
lhumerus -44.1368 21.1701 71.2156
lradius 23.2302
lwrist -12.3533
lhand -18.6795 25.7438
lfingers 7.12502
lthumb 7.61452 55.5867
rfemur 8.27855 1.06575 19.1523
rtibia 29.9336
rfoot -0.0184952 4.33535
rtoes -0.249457
lfemur -14.5853 -4.56326 -24.3238
ltibia 24.173
lfoot 5.95464 -12.025
ltoes 2.21512
500
root -17.9796 18.2238 11.9923 -346.974 81.5623 14.254
lowerback 7.1021 3.54427 0.800198
upperback 0.723921 4.76968 -0.885937
thorax -3.08206 2.36568 -1.81578
lowerneck -7.41854 -2.61456 -13.2
upperneck 44.4244 1.22637 3.57266
head 17.8291 -0.281211 4.58635
rclavicle -2.01766e-014 3.27995e-015
rhumerus -26.281 -11.0378 -82.2354
rradius 35.5959
rwrist 5.25667
rhand -16.4234 8.29113
rfingers 7.12502
rthumb 9.79164 -21.4612
lclavicle -2.01766e-014 3.27995e-015
lhumerus -43.7077 20.3797 71.7267
lradius 23.4246
lwrist -11.9865
lhand -17.8569 25.5963
lfingers 7.12502
lthumb 8.4084 55.4089
rfemur 8.28446 1.07067 19.1414
rtibia 29.2007
rfoot -1.34569 3.61525
rtoes -4.4728
lfemur -15.0896 -4.71954 -24.2848
ltibia 23.7978
lfoot 6.23632 -11.7919
ltoes 2.27556
501
root -18.1287 18.2145 11.9866 -346.965 81.4036 14.1414
lowerback 7.2806 3.68385 1.04734
upperback 0.719703 4.97229 -1.02694
thorax -3.14541 2.46228 -2.1293
lowerneck -7.47304 -2.74685 -12.9884
upperneck 44.3964 0.995338 3.50725
head 17.8525 -0.350039 4.48108
rclavicle -3.67565e-014 7.35503e-015
rhumerus -25.8257 -11.0942 -82.4091
rradius 35.8821
rwrist 5.36889
rhand -16.3995 8.375
rfingers 7.12502
rthumb 9.81477 -21.3763
lclavicle -3.67565e-014 7.35503e-015
lhumerus -43.3309 19.7667 72.1977
lradius 23.6539
lwrist -11.842
lhand -17.7869 25.5204
lfingers 7.12502
lthumb 8.47604 55.3303
rfemur 8.23142 0.998589 19.1565
rtibia 28.5069
rfoot -2.57885 3.08047
rtoes -6.05909
lfemur -15.4997 -4.96771 -24.1089
ltibia 23.3425
lfoot 6.65521 -11.4673
ltoes 3.11893
502
root -18.283 18.2038 11.9847 -346.3 81.2667 14.6754
lowerback 7.47553 3.71855 1.0356
upperback 0.698196 5.0175 -1.0664
thorax -3.27193 2.48277 -2.18354
lowerneck -7.56239 -2.77244 -12.8989
upperneck 44.3932 1.00172 3.36772
head 17.8762 -0.352777 4.40071
rclavicle 4.55403e-014 -6.36111e-015
rhumerus -25.3399 -10.7533 -82.5752
rradius 36.1222
rwrist 5.44571
rhand -16.4036 8.52562
rfingers 7.12502
rthumb 9.81081 -21.2258
lclavicle 4.55403e-014 -6.36111e-015
lhumerus -43.1346 19.5456 72.6341
lradius 23.8874
lwrist -11.6036
lhand -18.5372 25.2432
lfingers 7.12502
lthumb 7.7519 55.0812
rfemur 8.12658 0.959351 19.0993
rtibia 27.7017
rfoot -3.62473 2.72445
rtoes -3.76393
lfemur -15.9668 -5.01324 -24.0444
ltibia 22.8889
lfoot 7.02656 -11.4961
ltoes 2.41975
503
root -18.4357 18.2039 11.983 -349.617 81.3598 11.3753
lowerback 7.88271 3.62126 1.64867
upperback 0.717079 4.94922 -0.905196
thorax -3.44479 2.43822 -2.38046
lowerneck -7.53704 -2.6846 -12.9026
upperneck 44.3163 1.15361 3.29181
head 17.805 -0.29922 4.38217
rclavicle -3.50606e-014 2.38542e-015
rhumerus -24.8309 -10.1016 -82.8192
rradius 36.4137
rwrist 5.21634
rhand -16.3538 8.54192
rfingers 7.12502
rthumb 9.85882 -21.2073
lclavicle -3.50606e-014 2.38542e-015
lhumerus -42.9811 19.4827 73.0425
lradius 24.1696
lwrist -11.2551
lhand -18.4425 25.4194
lfingers 7.12502
lthumb 7.84328 55.2539
rfemur 8.20654 0.758627 19.7407
rtibia 26.9041
rfoot -4.36507 2.67468
rtoes -3.90298
lfemur -16.1522 -5.15674 -23.3314
ltibia 22.3098
lfoot 7.32475 -11.6089
ltoes 0.57644
